# xmcd CD database file
#
# Track frame offsets:
#	150
#	7379
#	22742
#	41720
#	55057
#	66778
#	81498
#	95015
#	117504
#	138037
#	157644
#	180699
#
# Disc length: 2793 seconds
#
# Revision: 2
# Processed by: cddbd v1.5.2PL0 Copyright (c) Steve Scherf et al.
# Submitted via: CDex 1.51
#
DISCID=980ae70c
DTITLE=Helsinki - August
DYEAR=2006
DGENRE=New Age
TTITLE0=August
TTITLE1=Glacier
TTITLE2=Your Friends Are God
TTITLE3=Lost Causes
TTITLE4=So Young, So Sad
TTITLE5=City From An Airliner
TTITLE6=Know When You're Beaten
TTITLE7=The Unspeakable
TTITLE8=To Be Free
TTITLE9=Small Doses
TTITLE10=Australia Song
TTITLE11=Out Of My League
EXTD=YEAR: 2006
EXTT0=
EXTT1=
EXTT2=
EXTT3=
EXTT4=
EXTT5=
EXTT6=
EXTT7=
EXTT8=
EXTT9=
EXTT10=
EXTT11=
PLAYORDER=
